# Blender v3.5.0 OBJ File: ''
# www.blender.org
mtllib hack_background_ui.mtl
o spring1
v 0.000200 0.312500 -0.044194
v -0.043994 0.312500 -0.000000
v -0.043994 0.812500 -0.000000
v 0.000200 0.812500 -0.044194
v 0.044394 0.312500 -0.000000
v 0.044394 0.812500 -0.000000
v 0.000200 0.312500 0.044194
v 0.000200 0.812500 0.044194
vt 0.531250 0.687500
vt 0.562500 0.687500
vt 0.562500 0.937500
vt 0.531250 0.937500
vt 0.531250 0.437500
vt 0.562500 0.437500
vt 0.562500 0.687500
vt 0.531250 0.687500
vt 0.562500 0.687500
vt 0.593750 0.687500
vt 0.593750 0.937500
vt 0.562500 0.937500
vt 0.562500 0.437500
vt 0.593750 0.437500
vt 0.593750 0.687500
vt 0.562500 0.687500
vt 0.812500 0.687500
vt 0.781250 0.687500
vt 0.781250 0.656250
vt 0.812500 0.656250
vt 0.812500 0.625000
vt 0.781250 0.625000
vt 0.781250 0.656250
vt 0.812500 0.656250
vn -0.7071 -0.0000 -0.7071
vn 0.7071 -0.0000 -0.7071
vn 0.7071 0.0000 0.7071
vn -0.7071 0.0000 0.7071
vn 0.0000 1.0000 0.0000
vn 0.0000 -1.0000 0.0000
usemtl m_27813016-53c3-32f3-dc34-ab0d0b8e9f0c
s 1
f 1/1/1 2/2/1 3/3/1 4/4/1
f 5/5/2 1/6/2 4/7/2 6/8/2
f 7/9/3 5/10/3 6/11/3 8/12/3
f 2/13/4 7/14/4 8/15/4 3/16/4
f 8/17/5 6/18/5 4/19/5 3/20/5
f 2/21/6 1/22/6 5/23/6 7/24/6
o cube1
v 0.000266 0.187500 -0.044194
v -0.043928 0.187500 -0.000000
v -0.043928 0.312500 -0.000000
v 0.000266 0.312500 -0.044194
v 0.044460 0.187500 -0.000000
v 0.044460 0.312500 -0.000000
v 0.000266 0.187500 0.044194
v 0.000266 0.312500 0.044194
vt 0.718750 0.375000
vt 0.750000 0.375000
vt 0.750000 0.437500
vt 0.718750 0.437500
vt 0.718750 0.312500
vt 0.750000 0.312500
vt 0.750000 0.375000
vt 0.718750 0.375000
vt 0.718750 0.250000
vt 0.750000 0.250000
vt 0.750000 0.312500
vt 0.718750 0.312500
vt 0.750000 0.875000
vt 0.781250 0.875000
vt 0.781250 0.937500
vt 0.750000 0.937500
vt 0.812500 0.375000
vt 0.781250 0.375000
vt 0.781250 0.343750
vt 0.812500 0.343750
vt 0.812500 0.312500
vt 0.781250 0.312500
vt 0.781250 0.343750
vt 0.812500 0.343750
vn -0.7071 -0.0000 -0.7071
vn 0.7071 -0.0000 -0.7071
vn 0.7071 0.0000 0.7071
vn -0.7071 0.0000 0.7071
vn 0.0000 1.0000 0.0000
vn 0.0000 -1.0000 0.0000
usemtl m_27813016-53c3-32f3-dc34-ab0d0b8e9f0c
s 1
f 9/25/7 10/26/7 11/27/7 12/28/7
f 13/29/8 9/30/8 12/31/8 14/32/8
f 15/33/9 13/34/9 14/35/9 16/36/9
f 10/37/10 15/38/10 16/39/10 11/40/10
f 16/41/11 14/42/11 12/43/11 11/44/11
f 10/45/12 9/46/12 13/47/12 15/48/12
